General
      Complete name : Kung.Fu.Hustle.2004.BRRip.H264.AAC.5.1ch.Gopo.mp4
      Format : MPEG-4
      Format profile : Base Media
      Codec ID : isom
      File size : 1.55 GiB
      Duration : 1h 39mn
      Overall bit rate : 2 238 Kbps
      Encoded date : UTC 2009-11-25 14:31:12
      Tagged date : UTC 2009-11-25 14:31:12
   Video #1
      ID : 1
      Format : AVC
      Format/Info : Advanced Video Codec
      Format profile : High@L4.1
      Format settings, CABAC : Yes
      Format settings, ReFrames : 4 frames
      Codec ID : avc1
      Codec ID/Info : Advanced Video Coding
      Duration : 1h 39mn
      Bit rate mode : Variable
      Bit rate : 1 870 Kbps
      Maximum bit rate : 4 594 Kbps
      Width : 1 280 pixels
      Height : 536 pixels
      Display aspect ratio : 2.35:1
      Frame rate mode : Constant
      Frame rate : 23.976 fps
      Resolution : 24 bits
      Colorimetry : 4:2:0
      Scan type : Progressive
      Bits/(Pixel*Frame) : 0.114
      Stream size : 1.30 GiB (84%)
      Writing library : x264 core 68 r1183M f21daff
      Encoding settings : cabac=1 / ref=4 / deblock=1:-1:-1 / analyse=0x3:0x113 / me=umh / subme=7 / psy_rd=1.0:0.0 / mixed_ref=1 / me_range=16 / chroma_me=1 / trellis=2 / 8x8dct=1 / cqm=0 / deadzone=21,11 / chroma_qp_offset=-2 / threads=3 / nr=0 / decimate=1 / mbaff=0 / bframes=3 / b_pyramid=0 / b_adapt=2 / b_bias=0 / direct=3 / wpredb=1 / keyint=250 / keyint_min=25 / scenecut=40 / rc=2pass / bitrate=1870 / ratetol=1.0 / qcomp=0.60 / qpmin=10 / qpmax=51 / qpstep=4 / cplxblur=20.0 / qblur=0.5 / vbv_maxrate=50000 / vbv_bufsize=50000 / ip_ratio=1.40 / pb_ratio=1.30 / aq=1:1.00 / cabac=1 / ref=4 / deblock=1:-1:-1 / analyse=0x3:0x113 / me=umh / subme=7 / psy_rd=1.0:0.0 / mixed_ref=1 / me_range=16 / chroma_me=1 / trellis=2 / 8x8dct=1 / cqm=0 / deadzone=21,11 / chroma_qp_offset=-2 / threads=3 / nr=0 / decimate=1 / mbaff=0 / bframes=3 / b_pyramid=0 / b_adapt=2 / b_bias=0 / direct=3 / wpredb=1 / keyint=250 / keyint_min=25 / scenecut=40 / rc=2pass / bitrate=1870 / ratetol=1.0 / qcomp=0.60 / qpmin=10 / qpmax=51 / qpstep=4 / cplxblur=20.0 / qblur=0.5 / vbv_maxrate=50000 / vbv_bufsize=50000 / ip_ratio=1.40 / pb_ratio=1.30 / aq=1:1.00
      Encoded date : UTC 2009-11-25 01:03:18
      Tagged date : UTC 2009-11-25 14:35:49
   Audio #2
      ID : 2
      Format : AAC
      Format/Info : Advanced Audio Codec
      Format version : Version 4
      Format profile : LC
      Format settings, SBR : No
      Codec ID : 40
      Duration : 1h 39mn
      Bit rate mode : Variable
      Bit rate : 364 Kbps
      Maximum bit rate : 462 Kbps
      Channel(s) : 6 channels
      Channel positions : Front: L C R, Rear: L R, LFE
      Sampling rate : 48.0 KHz
      Resolution : 16 bits
      Stream size : 259 MiB (16%)
      Encoded date : UTC 2009-11-25 14:34:44
      Tagged date : UTC 2009-11-25 14:35:49
	Sample : YES	
	Subtitle : English,Romanian

PLOT

Set in Canton, China in the 1940s, the story revolves in a town ruled by the Axe Gang, Sing who desperately wants to become a member. He stumbles into a slum ruled by eccentric landlords who turns out to be the greatest kung-fu masters in disguise. Sing's actions eventually cause the Axe Gang and the slumlords to engage in an explosive kung-fu battle. Only one side will win and only one hero will emerge as the greatest kung-fu master of all.

Director: Stephen Chow
CASTING
      
      tephen Chow	... 	Sing
	Xiaogang Feng	... 	Crocodile Gang Boss (as Feng Xiao Gang)
	Wah Yuen	... 	Landlord
	Zhi Hua Dong	... 	Donut
	Kwok-Kwan Chan	... 	Brother Sum (as Danny Chan)
	Chi Chung Lam	... 	Bone (Sing's Sidekick) (as Lam Tze Chung)
	Siu-Lung Leung	... 	The Beast
	Qiu Yuen	... 	Landlady
	Kai Man Tin	... 	Axe Gang Advisor
	Kang Xi Jia	... 	Harpist #1
	Hak On Fung	... 	Harpist #2
	Shengyi Huang	... 	Fong
	Suet Lam	... 	Axe Gang Vice General
	Cheung-Yan Yuen	... 	Beggar (as Cheng Yan Yuen)
	Chi Ling Chiu	... 	Tailor

SOURCE: Kung.Fu.Hustle.2004.720p.BluRay.DTS.x264-ESiR.mkv

Notes: For best performance I suggest you to use KMPlayer(find it with google) for playback
I haven't tested the movies on a PS3 or Xbox or other devices than PC because I don't own one of them but feel free to test them if you have the oportunity.
